<svg xmlns="http://www.w3.org/2000/svg" xmlns:xlink="http://www.w3.org/1999/xlink" width="18" height="18" viewBox="0 0 18 18">
  <defs>
    <style>
      .cls-1 {
        fill: #f4f4f4;
        fill-rule: evenodd;
        opacity: 0.7;
        filter: url(#filter);
      }
    </style>
    <filter id="filter" x="33" y="310" width="18" height="18" filterUnits="userSpaceOnUse">
      <feFlood result="flood" flood-color="#fff"/>
      <feComposite result="composite" operator="in" in2="SourceGraphic"/>
      <feBlend result="blend" in2="SourceGraphic"/>
    </filter>
  </defs>
  <path id="Shape_7_copy" data-name="Shape 7 copy" class="cls-1" d="M49.616,316.619a0.161,0.161,0,0,1-.117.05h-5a0.17,0.17,0,0,1-.167-0.167v-5a0.17,0.17,0,0,1,.167-0.167h5a0.17,0.17,0,0,1,.167.167v5A0.16,0.16,0,0,1,49.616,316.619Zm0.943-6.183A1.443,1.443,0,0,0,49.5,310h-5a1.5,1.5,0,0,0-1.5,1.5v5a1.5,1.5,0,0,0,1.5,1.5h5a1.5,1.5,0,0,0,1.5-1.5v-5A1.447,1.447,0,0,0,50.559,310.436Zm-0.943,16.183a0.161,0.161,0,0,1-.117.05h-5a0.17,0.17,0,0,1-.167-0.167v-5a0.17,0.17,0,0,1,.167-0.167h5a0.17,0.17,0,0,1,.167.167v5A0.16,0.16,0,0,1,49.616,326.619Zm0.943-6.183A1.443,1.443,0,0,0,49.5,320h-5a1.5,1.5,0,0,0-1.5,1.5v5a1.5,1.5,0,0,0,1.5,1.5h5a1.5,1.5,0,0,0,1.5-1.5v-5A1.447,1.447,0,0,0,50.559,320.436Zm-10.943,6.183a0.161,0.161,0,0,1-.117.05h-5a0.17,0.17,0,0,1-.167-0.167v-5a0.17,0.17,0,0,1,.167-0.167h5a0.17,0.17,0,0,1,.167.167v5A0.16,0.16,0,0,1,39.616,326.619Zm0.943-6.183A1.443,1.443,0,0,0,39.5,320h-5a1.5,1.5,0,0,0-1.5,1.5v5a1.5,1.5,0,0,0,1.5,1.5h5a1.5,1.5,0,0,0,1.5-1.5v-5A1.447,1.447,0,0,0,40.559,320.436Zm-0.943-3.817a0.161,0.161,0,0,1-.117.05h-5a0.17,0.17,0,0,1-.167-0.167v-5a0.17,0.17,0,0,1,.167-0.167h5a0.17,0.17,0,0,1,.167.167v5A0.16,0.16,0,0,1,39.616,316.619Zm0.943-6.183A1.443,1.443,0,0,0,39.5,310h-5a1.5,1.5,0,0,0-1.5,1.5v5a1.5,1.5,0,0,0,1.5,1.5h5a1.5,1.5,0,0,0,1.5-1.5v-5A1.447,1.447,0,0,0,40.559,310.436Z" transform="translate(-33 -310)"/>
</svg>
